:SAMPLES-PER-SECOND 30
:FULLY-SPECIFIED
:DEGREES
1087
root  -56.6197 36.4517 5.78522 7.52104 -83.1358 -1.54419
RightUpLeg  -39.7778 -17.7609 -11.432
RightLeg  58.0713 5.26435 8.59444
RightFoot  -2.43404 -1.10486 13.8968
RightToes  7.56698e-010 0 -3.6325e-017
Spine  45.1264 -3.45398 5.54363
Spine1  -6.28213 -0.939743 -0.921132
HEad  -37.7777 -7.14138 -24.6771
LeftShoulder1  1.28941 -7.16592 -4.12894
LeftArm  -13.631 -74.331 -41.0419
LeftForeArm  -9.73416 -53.164 -15.8486
LeftHand  -0.161499 10.9884 -2.00972
RightShoulder  1.13457 2.0489 13.5331
RightArm  -51.8666 20.7309 23.1041
RightForeArm  44.4305 75.024 123.647
RightHand  -2.54553 11.3554 -17.8964
LeftUpLeg  -43.7014 11.5541 -1.42069
LeftLeg  39.884 -4.2597 -3.41797
LeftFoot  -2.52446 -0.192623 2.69498
LeftToes  -2.88401e-009 5.30678e-011 -1.08654e-010
1088
root  -56.7737 36.6165 5.76051 9.73312 -83.523 -3.80145
RightUpLeg  -40.7935 -19.0922 -11.3756
RightLeg  56.5094 4.87541 7.48961
RightFoot  -2.6275 -0.924909 11.8455
RightToes  7.56698e-010 0 -3.6325e-017
Spine  46.9399 -3.17726 5.76506
Spine1  -8.30025 -0.411321 -1.02035
HEad  -37.9796 -8.2376 -25.9635
LeftShoulder1  1.46777 -7.77555 -5.18656
LeftArm  -13.0295 -74.3821 -40.6405
LeftForeArm  -10.3003 -51.9169 -15.166
LeftHand  -0.161894 10.9734 -2.0248
RightShoulder  1.17348 2.35957 13.0662
RightArm  -51.1529 19.6772 21.7606
RightForeArm  38.4482 75.7262 118.863
RightHand  -2.44896 10.1482 -18.4884
LeftUpLeg  -43.0306 12.4675 -1.20783
LeftLeg  39.2649 -4.67461 -3.70191
LeftFoot  -2.28679 -0.219827 2.95062
LeftToes  -2.88401e-009 5.30678e-011 -1.08654e-010
1089
root  -56.9368 36.6725 5.72839 12.4173 -83.5013 -6.05219
RightUpLeg  -40.994 -20.0565 -11.422
RightLeg  51.6132 4.5753 5.81117
RightFoot  -6.12409 -0.581609 11.8252
RightToes  7.56698e-010 0 -3.6325e-017
Spine  47.5208 -2.92626 6.04571
Spine1  -9.07981 -0.158479 -0.178423
HEad  -38.5309 -9.713 -27.2339
LeftShoulder1  1.61394 -8.16148 -6.11306
LeftArm  -11.4802 -74.3139 -41.7497
LeftForeArm  -10.8053 -50.8612 -14.6218
LeftHand  -0.165074 10.7726 -2.18405
RightShoulder  1.20559 2.65634 12.5759
RightArm  -50.1352 18.3534 20.7198
RightForeArm  33.7379 76.087 115.937
RightHand  -2.66399 11.7653 -18.1829
LeftUpLeg  -43.2713 12.9016 -1.0613
LeftLeg  39.2477 -4.90827 -3.9051
LeftFoot  -2.2973 -0.227583 3.05379
LeftToes  -2.88401e-009 5.30678e-011 -1.08654e-010
1090
root  -57.1215 36.5644 5.64151 11.8811 -83.1162 -5.02911
RightUpLeg  -40.6644 -20.9516 -11.7169
RightLeg  45.3737 4.18802 4.24226
RightFoot  -9.17816 -0.279025 11.3845
RightToes  7.56698e-010 0 -3.6325e-017
Spine  47.5041 -2.99383 6.16991
Spine1  -9.31826 -0.294751 0.476965
HEad  -38.5829 -10.9698 -28.0112
LeftShoulder1  1.789 -8.47232 -7.33976
LeftArm  -11.1769 -73.889 -41.4301
LeftForeArm  -11.1174 -50.1567 -14.2783
LeftHand  -0.19414 10.7421 -2.81026
RightShoulder  1.20541 2.77551 12.1635
RightArm  -49.3359 15.778 21.8378
RightForeArm  38.7974 75.3421 121.433
RightHand  -1.80238 9.18876 -14.61
LeftUpLeg  -44.1096 12.7917 -1.12412
LeftLeg  40.2355 -4.96312 -4.10008
LeftFoot  -2.71839 -0.229403 3.25971
LeftToes  -2.88401e-009 5.30678e-011 -1.08654e-010
1091
root  -57.3046 36.3632 5.47836 9.68037 -82.1424 -2.0423
RightUpLeg  -40.1565 -22.2326 -11.7555
RightLeg  38.8777 3.41953 2.67388
RightFoot  -9.49193 -0.248088 10.8652
RightToes  7.56698e-010 0 -3.6325e-017
Spine  47.4829 -3.31653 6.1364
Spine1  -10.3256 -0.79863 1.33549
HEad  -37.955 -10.6609 -27.3539
LeftShoulder1  2.07009 -9.7711 -8.14831
LeftArm  -14.6523 -72.9048 -35.8008
LeftForeArm  -12.532 -48.7803 -13.6831
LeftHand  -0.167278 10.4641 -2.38661
RightShoulder  1.24503 2.68292 13.1661
RightArm  -48.5727 13.3527 23.0952
RightForeArm  46.4474 74.0101 128.76
RightHand  -1.40075 7.87428 -12.6015
LeftUpLeg  -45.5855 12.0061 -1.32313
LeftLeg  41.6191 -4.95007 -4.30603
LeftFoot  -3.216 -0.218299 3.3477
LeftToes  -2.88401e-009 5.30678e-011 -1.08654e-010
1092
root  -57.4485 36.0172 5.15634 9.72536 -81.9541 -1.37048
RightUpLeg  -40.6428 -22.3797 -11.1061
RightLeg  35.3203 3.42367 2.35288
RightFoot  -6.23734 -0.599645 12.6516
RightToes  7.56698e-010 0 -3.6325e-017
Spine  47.4977 -3.29456 6.16227
Spine1  -10.7867 -1.05021 1.81914
HEad  -38.6248 -9.09935 -25.7767
LeftShoulder1  2.34043 -11.9459 -7.67838
LeftArm  -23.6241 -71.135 -22.6461
LeftForeArm  -16.9696 -47.402 -13.3022
LeftHand  -0.0876524 10.1883 -0.753937
RightShoulder  1.38645 3.1431 13.9989
RightArm  -47.8964 11.1058 24.4196
RightForeArm  50.9649 73.1903 132.275
RightHand  -1.55193 10.0025 -11.9623
LeftUpLeg  -47.5975 12.4059 -1.14879
LeftLeg  43.9726 -5.12995 -4.88
LeftFoot  -4.12524 -0.181536 3.26628
LeftToes  -2.88401e-009 5.30678e-011 -1.08654e-010
1093
root  -57.4854 35.5435 4.70826 8.96312 -82.2376 -0.825256
RightUpLeg  -42.7228 -22.0755 -10.6544
RightLeg  38.8796 4.47742 3.60196
RightFoot  -3.4986 -0.837245 11.8015
RightToes  7.56698e-010 0 -3.6325e-017
Spine  48.9232 -0.738776 4.03413
Spine1  -11.174 0.107753 7.16785
HEad  -38.5355 -8.18648 -26.8037
LeftShoulder1  2.29624 -9.04241 -11.0396
LeftArm  -7.96609 -72.7311 -40.194
LeftForeArm  -13.6728 -47.1365 -12.9889
LeftHand  0.00407541 10.3572 1.36559
RightShoulder  1.31773 3.00058 13.3258
RightArm  -48.4104 10.6853 22.2297
RightForeArm  49.9512 74.0789 128.527
RightHand  -1.02097 8.32024 -9.03532
LeftUpLeg  -49.0878 13.1914 -0.528361
LeftLeg  46.9583 -5.14487 -5.45094
LeftFoot  -5.36359 -0.119155 2.90387
LeftToes  -2.88401e-009 5.30678e-011 -1.08654e-010
1094
root  -57.5199 35.0934 4.52057 11.3932 -80.924 -4.40662
RightUpLeg  -43.2317 -24.7708 -9.85051
RightLeg  42.675 5.25077 4.86854
RightFoot  -5.13506 -0.648649 11.2914
RightToes  7.56698e-010 0 -3.6325e-017
Spine  51.3338 -2.49832 6.39792
Spine1  -12.0936 -0.17475 5.61319
HEad  -37.4504 -7.28114 -25.7637
LeftShoulder1  2.46483 -9.47336 -11.8657
LeftArm  -8.07768 -72.3638 -38.8343
LeftForeArm  -14.6689 -46.137 -12.6052
LeftHand  0.0267656 9.84608 1.97341
RightShoulder  1.40186 3.66339 12.605
RightArm  -48.2251 10.5406 20.6278
RightForeArm  44.209 75.1469 122.871
RightHand  -0.936867 6.71004 -9.29661
LeftUpLeg  -49.7364 12.2387 0.758342
LeftLeg  50.0453 -5.04376 -5.98561
LeftFoot  -6.61122 -0.0720578 2.70726
LeftToes  -2.88401e-009 5.30678e-011 -1.08654e-010
1095
root  -57.4887 34.6329 4.06317 18.3778 -81.8901 -11.0536
RightUpLeg  -46.2197 -23.7944 -7.74811
RightLeg  45.9434 5.08591 5.28471
RightFoot  -5.54327 -0.523581 9.56482
RightToes  7.56698e-010 0 -3.6325e-017
Spine  53.2514 -1.57611 6.78695
Spine1  -13.4996 0.913648 6.28373
HEad  -36.737 -6.19805 -24.8219
LeftShoulder1  2.63666 -9.98595 -12.4767
LeftArm  -7.87682 -71.7818 -38.7826
LeftForeArm  -14.6654 -45.3068 -12.2528
LeftHand  -0.0151651 9.97872 1.02131
RightShoulder  1.50158 4.87497 10.7021
RightArm  -47.9389 10.1672 20.0048
RightForeArm  36.0997 76.2097 114.871
RightHand  -0.835611 6.79493 -8.27933
LeftUpLeg  -51.9478 14.4787 2.04999
LeftLeg  52.8525 -5.43053 -7.18313
LeftFoot  -7.48313 -0.0369669 2.43755
LeftToes  -2.88401e-009 5.30678e-011 -1.08654e-010
1096
root  -57.4066 34.1752 3.56275 21.2595 -82.6086 -13.3435
RightUpLeg  -49.3523 -23.0568 -6.34969
RightLeg  49.2239 4.71379 5.49987
RightFoot  -6.94704 -0.391601 8.96145
RightToes  7.56698e-010 0 -3.6325e-017
Spine  54.7416 -1.21767 6.68151
Spine1  -13.8698 1.34634 5.71513
HEad  -37.0683 -5.26866 -23.0261
LeftShoulder1  2.8042 -11.0521 -12.2009
LeftArm  -12.8542 -71.5937 -32.9423
LeftForeArm  -15.5065 -44.06 -11.7928
LeftHand  -0.154101 10.7257 -1.97092
RightShoulder  1.47264 5.03743 9.9561
RightArm  -47.8009 12.6245 19.9105
RightForeArm  23.7309 77.2539 101.128
RightHand  -0.717389 6.94794 -7.07384
LeftUpLeg  -54.2272 16.4598 2.4802
LeftLeg  55.0642 -5.79453 -8.35686
LeftFoot  -7.85524 -0.0188033 2.17182
LeftToes  -2.88401e-009 5.30678e-011 -1.08654e-010
1097
root  -57.325 33.8347 3.25717 25.8543 -82.2376 -18.1114
RightUpLeg  -50.7694 -24.0126 -4.66419
RightLeg  51.4042 4.95389 6.26154
RightFoot  -8.08676 -0.291171 8.28306
RightToes  7.56698e-010 0 -3.6325e-017
Spine  57.4741 -3.16729 8.93669
Spine1  -15.2743 0.985823 2.39373
HEad  -36.859 -4.68366 -20.1986
LeftShoulder1  3.37932 -14.629 -11.4388
LeftArm  -23.5621 -69.3036 -18.7393
LeftForeArm  -19.1224 -42.5053 -11.3843
LeftHand  -0.239965 10.6115 -3.78781
RightShoulder  1.58142 5.664 9.98851
RightArm  -47.7825 14.2995 19.0672
RightForeArm  5.85481 77.3998 84.099
RightHand  -0.907468 6.998 -8.83858
LeftUpLeg  -55.4622 17.0964 3.56446
LeftLeg  56.8054 -5.93382 -9.17417
LeftFoot  -8.17856 -0.0062444 2.01008
LeftToes  -2.88401e-009 5.30678e-011 -1.08654e-010
1098
root  -57.2352 33.5298 2.85992 32.2048 -82.2398 -23.6697
RightUpLeg  -53.2783 -24.118 -2.46553
RightLeg  53.2187 4.90783 6.62763
RightFoot  -8.96636 -0.214407 7.41092
RightToes  7.56698e-010 0 -3.6325e-017
Spine  59.6533 -3.00847 9.57244
Spine1  -16.6138 1.6359 2.49068
HEad  -36.8293 -4.04428 -19.0417
LeftShoulder1  3.51382 -14.7721 -12.0902
LeftArm  -22.6879 -69.5009 -19.477
LeftForeArm  -20.0832 -41.3345 -11.0009
LeftHand  -0.138315 9.74522 -2.15775
RightShoulder  1.55343 6.06295 8.82951
RightArm  -47.8534 16.2229 17.1388
RightForeArm  -13.3385 76.0935 63.6399
RightHand  -0.780938 6.78817 -7.72174
LeftUpLeg  -57.5753 18.7611 4.19768
LeftLeg  58.1082 -6.43371 -10.5033
LeftFoot  -8.24458 0.00137351 1.78177
LeftToes  -2.88401e-009 5.30678e-011 -1.08654e-010
1099
root  -57.1165 33.2218 2.42124 40.11 -83.089 -30.1279
RightUpLeg  -56.6288 -23.1722 -0.328408
RightLeg  54.7843 4.73707 6.77636
RightFoot  -9.41562 -0.177975 6.77409
RightToes  7.56698e-010 0 -3.6325e-017
Spine  62.0346 -1.93019 9.48657
Spine1  -19.2077 2.89421 2.18883
HEad  -36.7035 -3.77792 -17.8776
LeftShoulder1  3.89888 -14.9057 -14.2565
LeftArm  -19.2011 -70.1024 -21.8438
LeftForeArm  -19.239 -40.0684 -10.5076
LeftHand  -0.184616 10.3255 -2.81904
RightShoulder  1.60482 6.25656 9.08542
RightArm  -47.5418 18.1143 13.6203
RightForeArm  -27.8738 73.4494 48.4587
RightHand  -0.505746 5.81468 -5.57841
LeftUpLeg  -60.2586 21.4118 4.13189
LeftLeg  59.1468 -7.02428 -11.9737
LeftFoot  -8.19735 0.01167 1.3735
LeftToes  -2.88401e-009 5.30678e-011 -1.08654e-010
1100
root  -57.0203 32.9598 2.00744 45.0819 -83.3786 -33.7173
RightUpLeg  -59.6943 -23.2021 1.82622
RightLeg  56.1868 4.82225 7.28725
RightFoot  -9.68398 -0.148248 5.68672
RightToes  7.56698e-010 0 -3.6325e-017
Spine  63.5187 -1.4206 9.18945
Spine1  -19.4102 3.34009 2.46234
HEad  -39.0575 -3.30398 -16.6155
LeftShoulder1  3.75843 -14.1959 -14.3176
LeftArm  -20.4867 -70.7586 -21.0219
LeftForeArm  -20.3227 -38.9449 -10.1782
LeftHand  -0.0910279 9.38492 -1.13586
RightShoulder  1.5481 7.16851 6.88044
RightArm  -48.1563 20.5017 12.5152
RightForeArm  -39.182 69.4925 36.6923
RightHand  -0.475544 6.09703 -5.13708
LeftUpLeg  -62.7702 23.1393 3.84942
LeftLeg  59.8457 -7.4253 -13.0316
LeftFoot  -7.80653 0.014475 1.0549
LeftToes  -2.88401e-009 5.30678e-011 -1.08654e-010
1101
root  -56.9661 32.7113 1.60704 49.1194 -83.2057 -36.5417
RightUpLeg  -62.3834 -23.7041 4.16097
RightLeg  57.4974 5.01895 7.99441
RightFoot  -9.98469 -0.121795 4.58365
RightToes  7.56698e-010 0 -3.6325e-017
Spine  65.3833 -0.98685 9.27379
Spine1  -20.3172 3.96666 2.95769
HEad  -39.8794 -2.90591 -14.2822
LeftShoulder1  3.89315 -14.5177 -14.7179
LeftArm  -21.9684 -70.2839 -21.3836
LeftForeArm  -19.1097 -38.2531 -9.88922
LeftHand  -0.0985858 9.47214 -1.26138
RightShoulder  1.56466 8.51404 5.24097
RightArm  -48.6842 21.7753 10.1325
RightForeArm  -46.662 64.895 28.5924
RightHand  -0.208665 6.67066 -2.3488
LeftUpLeg  -65.0873 24.563 3.75692
LeftLeg  60.5157 -7.92932 -14.3045
LeftFoot  -7.63648 0.0331358 0.392619
LeftToes  -2.88401e-009 5.30678e-011 -1.08654e-010
